<svg id="Capa_1" data-name="Capa 1" xmlns="http://www.w3.org/2000/svg" viewBox="0 0 186.78 234.06"><defs><style>.cls-1,.cls-2,.cls-5{fill:#444797;}.cls-2{font-size:45.7px;}.cls-2,.cls-5{font-family:OptimaLTStd-BlackItalic, Optima LT Std;font-style:italic;}.cls-3{letter-spacing:-0.07em;}.cls-4{letter-spacing:0em;}.cls-5{font-size:26.44px;}</style></defs><title>LOGO REDUCIDO HORIZONTAL SVG</title><path class="cls-1" d="M263,352.72c1.73,5.54,8,10,10.54,11C271,362.73,264.79,358.09,263,352.72Z" transform="translate(-204.25 -303.94)"/><path class="cls-1" d="M263.11,346.45h0a21.31,21.31,0,0,0-.46,2.33C262.76,348,262.92,347.23,263.11,346.45Z" transform="translate(-204.25 -303.94)"/><path class="cls-1" d="M267.6,337.33a28.92,28.92,0,0,0-3.53,6.17h0A28.92,28.92,0,0,1,267.6,337.33Z" transform="translate(-204.25 -303.94)"/><path class="cls-1" d="M367.77,320.24a23.91,23.91,0,0,1,6.23,7.82,20.17,20.17,0,0,0,5.68,1.82l1.87.06c-2.11-7.4-7.27-13.69-14.7-18.21l.19,5.51A25.85,25.85,0,0,0,367.77,320.24Z" transform="translate(-204.25 -303.94)"/><path class="cls-1" d="M280.55,325.41l.83-.54c.44-.28.87-.57,1.32-.84l.88-.53,1.38-.81.91-.5,1.44-.79c.27-.15.56-.28.84-.43,1-.49,2-1,3-1.44l1.1-.51,1.3-.56c.45-.19.89-.39,1.35-.57s.87-.34,1.31-.51l1.42-.56,1.33-.47,1.48-.52,1.35-.44,1.54-.49,1.37-.4,1.59-.45,1.4-.36,1.64-.4c.47-.12.94-.22,1.42-.33l1.69-.36,1.43-.28,1.74-.32,1.44-.24,1.8-.27,1.44-.19,1.89-.22c.47-.05.93-.11,1.4-.15l2-.17,1.34-.1c.75-.05,1.51-.08,2.27-.11l1.12-.05c1.13,0,2.28-.06,3.43-.06,2.22,0,4.33.11,6.57.23l.28,0c9.07.59,18,3.12,24.71,7.66.08-.36.16-.73.23-1.11l.22-6.19a57.53,57.53,0,0,0-24.64-6.84l-.18,0h-.28c-2.22-.12-4.52-.24-6.91-.24-18.55,0-36.86,4.56-51.56,12.85-1.33.75-2.6,1.53-3.83,2.33l.25,7.67.71-.5Z" transform="translate(-204.25 -303.94)"/><path class="cls-1" d="M267.75,337.11c.31-.42.65-.83,1-1.25l.3-.37c.32-.38.66-.77,1-1.15l.4-.45c.34-.36.69-.73,1.05-1.09l.48-.49,1.09-1,.57-.52c.37-.33.74-.66,1.13-1l.64-.54,1.18-1,.07,0c0-.14.05-.27.08-.41L277,320c-10.4,7.08-16.88,15.68-19.75,24.27l4.45-.17c.84-.17,1.63-.37,2.39-.59a28.92,28.92,0,0,1,3.53-6.17Z" transform="translate(-204.25 -303.94)"/><path class="cls-1" d="M262.64,348.78a8.53,8.53,0,0,0,.39,3.94A9.19,9.19,0,0,1,262.64,348.78Z" transform="translate(-204.25 -303.94)"/><path class="cls-1" d="M263.47,345.11c-.15.45-.26.89-.37,1.34h0C263.22,346,263.32,345.56,263.47,345.11Z" transform="translate(-204.25 -303.94)"/><path class="cls-1" d="M264.07,343.5c-.22.54-.43,1.08-.6,1.61.17-.53.38-1.07.6-1.61Z" transform="translate(-204.25 -303.94)"/><path class="cls-1" d="M382.58,339.5a28.93,28.93,0,0,0-.66-8.16l-2.24.08a23.73,23.73,0,0,0-4.11,1.11,23.11,23.11,0,0,1,.53,6.58c-.42,7.24-4.25,13.1-9.51,17.78l-.62.54a54.23,54.23,0,0,1-9.31,6.31c7.46,4.12,12.76,10.5,12.41,19.63-.65,21.6-28.55,37.39-51.84,46.82C292,440.4,260.67,447.53,241,447.53a63.73,63.73,0,0,1-7.45-.41c-21.65-2.67-23.11-16-22.74-21.63,1.31-23,53-48.38,61.33-49.51l3.68-11.45s-1.68-.59-2.23-.81c-2.58-1-8.81-5.46-10.54-11a8.53,8.53,0,0,1-.39-3.94,21.31,21.31,0,0,1,.46-2.33c-.46-.12-.93-.23-1.42-.33l-5-.19c-.19.7-.36,1.39-.51,2.08-2.12,9.93,5.06,16.38,11,19.78l-1.31,3.48c-13.42,4.49-25.37,12.37-34.32,18-17.89,11.14-26.51,23.92-27.23,35.9-.38,5.9.62,25,28.47,28.46A72.55,72.55,0,0,0,241,454c20.76,0,52.38-7.15,78.69-17.8,25.08-10.16,55.14-27.55,55.9-52.6a25.9,25.9,0,0,0-7.51-19.43C375.87,358.22,382,350.18,382.58,339.5Z" transform="translate(-204.25 -303.94)"/><path class="cls-1" d="M288.82,344.4c-6.35-1.27-9.32-4.49-10.5-11.35l-.65-20.26L277,333.05c-1.18,6.86-4.15,10.08-10.5,11.35l-18.73.71,18.73.71c6.35,1.27,9.32,4.48,10.5,11.35l.66,20.26.65-20.26c1.18-6.87,4.15-10.08,10.5-11.35l18.74-.71Z" transform="translate(-204.25 -303.94)"/><path class="cls-1" d="M270.18,349.63a.43.43,0,0,0,0,.05l.14.05Z" transform="translate(-204.25 -303.94)"/><path class="cls-1" d="M375.62,330.11c-5.35-1-7.84-3.46-8.81-8.81l-.54-15.41-.54,15.41a11.73,11.73,0,0,1-2.19,5.4c-5.74-5.35-15.39-7.92-23.38-8.44-2.23-.12-4.34-.24-6.45-.24-23,0-42,7.78-53.09,16.73a14.63,14.63,0,0,0,5.25,6.34c12.93-10.1,37.73-20.13,56.28-19,4.49.25,14.67,2.1,19.4,6.33a12.78,12.78,0,0,1-4.63,1.65l-15.41.54,15.41.54c3.26.59,5.45,1.75,6.89,3.77-2.76,9.29-32.69,23.74-51.9,30.07,8.44-9.26,16.41-18.29,25.2-24.62,2.11-1.4,4.1-2.11,5.39-1.4,2,1.52-2.11-5.63-8.79-6.22-.94-.11-2.7.47-4.81,1.88A98.94,98.94,0,0,0,317.11,345l3.41.13-3.68.14c-18.47,18.6-38.74,48.31-38.93,56.24-.12,3.05,1.64,4,3.63,4,2.46,0,8-3.64,10.2-5.75-1.29.59-6,2.23-7.74,2.11-.46,0-.93-.23-.93-.58,0-4.11,17-22.86,23.68-30.48A93.85,93.85,0,0,1,328.32,368c1.52,0,2.93,0,4.45.12,8.56.59,22.39,3.17,21.81,11-1.76,20.4-77.26,52.52-116.18,52.52-1.52,0-3.05,0-4.45-.12-3.17-.23-11.84-.94-11.61-5.27.82-12.55,31.42-30.13,43.85-35.88.82-.35.93-.35.82-.46-8.68,1.17-47.72,19.69-48.65,36.1-.59,8.79,6.56,12.43,16.06,13.6a55.66,55.66,0,0,0,6.56.35c36,0,119.58-25.79,120.51-56.85.47-12.43-16.64-16.89-26.72-17.71a25.6,25.6,0,0,0-4-.11c6.93-1.56,27.82-7.68,35.17-19.09l.32,9.22.36-10.37a15,15,0,0,0,1.9-6.37,15.65,15.65,0,0,0-.15-3.17c1.43-2.35,3.71-3.66,7.24-4.3l15.41-.54Z" transform="translate(-204.25 -303.94)"/><text class="cls-2" transform="translate(9.3 199.6)">BRIL<tspan class="cls-3" x="96.47" y="0">L</tspan><tspan class="cls-4" x="116.12" y="0">O </tspan></text><text class="cls-5" transform="translate(67.61 227.13)">JD_Plus</text></svg>