<svg id="Capa_1" data-name="Capa 1" xmlns="http://www.w3.org/2000/svg" viewBox="0 0 240.56 234.76"><defs><style>.cls-1{fill:#444797;}</style></defs><title>LOGO REDUCIDO ICONO SVG</title><path class="cls-1" d="M417.85,383.56c1.54-25.77-21.48-45.34-56-47.6h-.24l-.37,0c-3-.16-6.09-.32-9.32-.32-23.88,0-47.47,5.62-66.81,15.85a40.32,40.32,0,0,0,4,7.81l.22-.12,1.14-.57c1.3-.67,2.63-1.32,4-1.95l1.48-.69c.57-.26,1.17-.5,1.75-.75s1.2-.52,1.82-.77l1.76-.7c.63-.25,1.27-.5,1.92-.74l1.79-.64c.66-.24,1.32-.48,2-.7s1.21-.4,1.82-.6l2.08-.65c.61-.19,1.23-.36,1.85-.54s1.42-.41,2.14-.6l1.89-.5,2.21-.54,1.91-.44q1.13-.25,2.28-.48c.64-.14,1.28-.27,1.93-.39s1.56-.29,2.35-.42l1.94-.33,2.43-.36,1.94-.26c.84-.11,1.69-.2,2.54-.29.63-.07,1.26-.15,1.9-.21l2.71-.22,1.8-.14q1.51-.09,3.06-.15l1.51-.07c1.53-.05,3.08-.08,4.63-.08,3,0,5.84.15,8.85.31l.38,0c25,1.64,49.38,14.12,47.93,38.33-.88,15.3-13,26-26.22,33.22,10.07,5.56,17.21,14.15,16.74,26.47-.88,29.13-38.5,50.42-69.91,63.14-34,13.76-76.27,23.38-102.82,23.38a86.88,86.88,0,0,1-10-.55c-29.2-3.6-31.17-21.6-30.66-29.17,1.76-31,71.46-65.25,82.7-66.76l5-15.45s-2.27-.8-3-1.09c-3.44-1.33-11.83-7.59-14.21-14.83a12.56,12.56,0,0,1-.52-5.32,28.7,28.7,0,0,1,3.2-9.85h0a41.86,41.86,0,0,0-7.4-3.53A49.55,49.55,0,0,0,247.4,395c-2.87,13.39,6.82,22.09,14.79,26.67l-1.77,4.7c-18.09,6.05-34.21,16.69-46.28,24.21-24.12,15-35.75,32.25-36.71,48.41-.51,8,.83,33.74,38.39,38.38a95.67,95.67,0,0,0,11.07.6c28,0,70.64-9.65,106.11-24,33.83-13.69,74.36-37.14,75.38-70.93a34.82,34.82,0,0,0-10.13-26.19C408.79,408.81,417,398,417.85,383.56Z" transform="translate(-177.36 -303.24)"/><path class="cls-1" d="M266.44,397.36l-.17-.14,0,.06Z" transform="translate(-177.36 -303.24)"/><path class="cls-1" d="M277.85,405.52l1.51,46.7,1.51-46.7c2.71-15.82,9.56-23.22,24.19-26.16l39.29-1.48c-.52.39-1,.77-1.58,1.19A144.9,144.9,0,0,0,329.56,391l-.37.36c-19.61,19.75-40.72,48.78-48.94,65.45-.63,1.3-1.2,2.52-1.67,3.66a20.68,20.68,0,0,0-1.89,6.74c-.1,2.65.85,4.1,2.26,4.81a4.61,4.61,0,0,0,.8.32,6.93,6.93,0,0,0,1.84.24c3.32,0,10.75-4.9,13.75-7.74-1.74.79-8.06,3-10.43,2.84-.63,0-1.27-.32-1.27-.79,0-5.53,22.93-30.83,31.94-41.1a126.82,126.82,0,0,1,29.09-3.8c2.05,0,3.95,0,6,.16,11.54.79,30.2,4.27,29.41,14.86-2.37,27.51-104.18,70.83-156.67,70.83-2,0-4.11,0-6-.16-4.27-.32-16-1.27-15.66-7.12,1.11-16.91,42.37-40.63,59.13-48.37,1.11-.48,1.26-.48,1.11-.63-11.7,1.58-64.35,26.56-65.61,48.69-.79,11.85,8.85,16.75,21.66,18.33a75.73,75.73,0,0,0,8.85.48c48.53,0,161.25-34.78,162.52-76.67.63-16.76-22.45-22.77-36.05-23.87a33.59,33.59,0,0,0-5.37-.16c11.22-2.53,49.64-13.91,50.9-35.89,1.11-18.49-21.34-26.4-38.26-27.51-3-.15-5.85-.31-8.69-.31-21.84,0-41,5.2-55.62,12.48a39.57,39.57,0,0,0,11.78,6.15c17.16-8.22,38.15-14.18,55.22-13.1,8.38.48,31.46,5.06,29.41,16.6-2.38,12.49-43.8,32.57-70.2,41.26,11.39-12.49,22.14-24.66,34-33.2,2.85-1.89,5.54-2.84,7.27-1.89,1.62,1.23.25-1.76-3-4.51a18.69,18.69,0,0,0-1.88-1.39,15.34,15.34,0,0,0-6.93-2.48c-1.14-.15-3.19.49-5.66,2-.27.16-.54.33-.82.52l-.74.55-39.66-1.5c-14.63-2.93-21.48-10.34-24.19-26.16l-1.51-46.7-1.51,46.7c-2.71,15.82-9.56,23.23-24.19,26.16l-43.19,1.63,43.19,1.63C268.29,382.3,275.14,389.7,277.85,405.52Z" transform="translate(-177.36 -303.24)"/></svg>