<svg id="Capa_1" data-name="Capa 1" xmlns="http://www.w3.org/2000/svg" xmlns:xlink="http://www.w3.org/1999/xlink" viewBox="0 0 472 236.05"><defs><style>.cls-1{fill:none;}.cls-2{fill:url(#Degradado_sin_nombre_5);}.cls-3{fill:#444797;}.cls-4{fill:#fff;}.cls-5{fill:url(#Degradado_sin_nombre_10);}.cls-6{fill:url(#Degradado_sin_nombre_15);}.cls-7{fill:url(#Degradado_sin_nombre_15-2);}.cls-8{fill:url(#Degradado_sin_nombre_15-3);}.cls-9{fill:url(#Degradado_sin_nombre_15-4);}.cls-10{fill:url(#Degradado_sin_nombre_15-5);}.cls-11{fill:url(#Degradado_sin_nombre_15-6);}.cls-12{fill:url(#Degradado_sin_nombre_15-7);}.cls-13{fill:url(#Degradado_sin_nombre_10-2);}.cls-14{fill:url(#Degradado_sin_nombre_10-3);}.cls-15{fill:url(#Degradado_sin_nombre_10-4);}.cls-16{fill:url(#Degradado_sin_nombre_10-5);}.cls-17{fill:url(#Degradado_sin_nombre_10-6);}.cls-18{fill:url(#Degradado_sin_nombre_10-7);}</style><radialGradient id="Degradado_sin_nombre_5" cx="297.64" cy="426.6" r="175" gradientUnits="userSpaceOnUse"><stop offset="0" stop-color="#b4e0f5"/><stop offset="1" stop-color="#36a9e1"/></radialGradient><radialGradient id="Degradado_sin_nombre_10" cx="365.53" cy="401.39" r="31.54" gradientUnits="userSpaceOnUse"><stop offset="0" stop-color="#f9b233"/><stop offset="1" stop-color="#fff"/></radialGradient><linearGradient id="Degradado_sin_nombre_15" x1="341.71" y1="500.4" x2="341.71" y2="538.97" gradientUnits="userSpaceOnUse"><stop offset="0" stop-color="#9ec41a"/><stop offset="1" stop-color="#063"/></linearGradient><linearGradient id="Degradado_sin_nombre_15-2" x1="368.61" y1="500.4" x2="368.61" y2="531.95" xlink:href="#Degradado_sin_nombre_15"/><linearGradient id="Degradado_sin_nombre_15-3" x1="398.04" y1="535.37" x2="398.04" y2="537.65" xlink:href="#Degradado_sin_nombre_15"/><linearGradient id="Degradado_sin_nombre_15-4" x1="424.34" y1="500.4" x2="424.34" y2="531.95" xlink:href="#Degradado_sin_nombre_15"/><linearGradient id="Degradado_sin_nombre_15-5" x1="444.76" y1="498.17" x2="444.76" y2="531.95" xlink:href="#Degradado_sin_nombre_15"/><linearGradient id="Degradado_sin_nombre_15-6" x1="464.64" y1="509.48" x2="464.64" y2="532.45" xlink:href="#Degradado_sin_nombre_15"/><linearGradient id="Degradado_sin_nombre_15-7" x1="487.62" y1="509.11" x2="487.62" y2="532.54" xlink:href="#Degradado_sin_nombre_15"/><radialGradient id="Degradado_sin_nombre_10-2" cx="149.23" cy="389.06" r="40.27" xlink:href="#Degradado_sin_nombre_10"/><radialGradient id="Degradado_sin_nombre_10-3" cx="180.35" cy="351.01" r="6.48" xlink:href="#Degradado_sin_nombre_10"/><radialGradient id="Degradado_sin_nombre_10-4" cx="271.76" cy="366.13" r="17.37" xlink:href="#Degradado_sin_nombre_10"/><radialGradient id="Degradado_sin_nombre_10-5" cx="211.54" cy="312.21" r="6.48" xlink:href="#Degradado_sin_nombre_10"/><radialGradient id="Degradado_sin_nombre_10-6" cx="231.79" cy="315.22" r="6.48" xlink:href="#Degradado_sin_nombre_10"/><radialGradient id="Degradado_sin_nombre_10-7" cx="241.14" cy="352.83" r="9.31" xlink:href="#Degradado_sin_nombre_10"/></defs><title>LOGO FULL COLOR SVG</title><path class="cls-1" d="M503.39,450.06l-.26-.81h0Z" transform="translate(-61.64 -302.92)"/><path class="cls-2" d="M526.42,427.87a16.32,16.32,0,0,0-13.9-21.75,17.07,17.07,0,0,0-7.64,1l-2.25.83-1.39-1.94a17.29,17.29,0,0,0-3.77-3.82c-4.92-3.86-11.21-5.8-18.77-5.8a56.91,56.91,0,0,0-11.24,1.18L459,399.33l5.36-6.75c1.94-2.45,3.48-4.3,4.69-5.65l.73-.81,1.07-.19a16.46,16.46,0,0,0,8-3.81,16.66,16.66,0,0,0,4.42-18.85c-3.43-8.47-14.61-16.89-27.5-16.37-4.54.13-8.81,1.79-13.48,5.25l-1.79,1.32-1.84-1.25a30.12,30.12,0,0,0-18-5.32c-6.4.18-11.42,3.56-15.07,6.48-4.41,3.53-9.14,8.65-14.87,16.1-2.73,3.57-5.4,7.13-8.16,10.89l-1.76,2.4-2.49-1.64a23.24,23.24,0,0,0-15.93-3.94,16.44,16.44,0,0,0-2.68.59C351,380.44,344,390,341,398.28L339.59,402l-3.3-2.18a18.3,18.3,0,0,0-12-3.3c-4.16.39-8.6,2-13.59,4.9l-1.74,1-1.64-1.15a23.41,23.41,0,0,0-13.09-4.55,19.26,19.26,0,0,0-8.3,1.89l-9.61,4.56,5.59-9a35.22,35.22,0,0,0,5.31-16.67c1.38-23.07-19.38-40.59-50.49-42.63l-.59,0c-2.77-.15-5.58-.29-8.49-.29-22.85,0-45.4,5.61-63.51,15.81-18.5,10.43-30,24.22-31.67,37.86-1,8,1.19,15.51,6.12,21.08a25,25,0,0,0,3.87,3.54l1.92,1.41-3.84,10.08-1.59.4c-10.85,2.7-26.62,10.67-36.68,16.94C80.4,455.26,68.86,469.52,68,484c-.45,7,.7,30,34.36,34.14a87.27,87.27,0,0,0,10.05.55c33.81,0,94.75-15.79,131.59-39.29l2.43-1.55,1.75,2.28c4.65,6.08,11.34,9.56,18.35,9.56a21.48,21.48,0,0,0,5-.6A16.34,16.34,0,0,0,284,474.78q0-.39.06-.78l0-.84.46-.71a81.7,81.7,0,0,1,8-10.26l1.94-2.1,2.27,1.73a24.94,24.94,0,0,0,3.69,2.33l1.49.76.2,1.65c1.23,10,9.83,17.88,17.28,20.21.54.17,1.1.31,1.67.43a23.57,23.57,0,0,0,4.95.46c.44,0,.88,0,1.31-.05,3.31-.27,8.07-1.21,15.61-6.21l2-1.32,1.81,1.57a25.69,25.69,0,0,0,4.29,3.08,21.2,21.2,0,0,0,18.27,1.62,33.84,33.84,0,0,0,8.68-4.87l2-1.44,1.87,1.62a25.5,25.5,0,0,0,4.27,3.07,21.2,21.2,0,0,0,18.27,1.62c1.65-.61,4.11-1.51,9-5.1l2-1.45,1.89,1.6a28,28,0,0,0,16.47,6.66H434c.53,0,1.09.05,1.67.05,19.89,0,46.93-17.47,59-38.15l.73-1.25,1.42-.25a44,44,0,0,0,5.49-1.36l.8,2.15h0l-.71-2.18C509.13,444.88,522.78,438.05,526.42,427.87Z" transform="translate(-61.64 -302.92)"/><path class="cls-3" d="M530.1,410.21a22.78,22.78,0,0,0-17-10.35,23.37,23.37,0,0,0-8.19.71,23.26,23.26,0,0,0-3.62-3.33c-6.14-4.83-14-7.22-23.3-7.08a22.87,22.87,0,0,0,11.09-29.25c-4.24-10.48-17.95-21-33.54-20.29a28.52,28.52,0,0,0-15.21,5.22,36.2,36.2,0,0,0-19.9-5.22c-8.24.24-14.36,4.32-18.79,7.86-4.81,3.85-9.87,9.31-15.92,17.18-2.2,2.87-4.35,5.73-6.55,8.69A29.06,29.06,0,0,0,361.55,371a23.61,23.61,0,0,0-3.73.81c-10,3.09-17.4,12.56-21.32,20.93a23.7,23.7,0,0,0-12.78-2.44A37.86,37.86,0,0,0,309.26,395a27.83,27.83,0,0,0-18.6-4.32,41,41,0,0,0,2.84-12.87c1.6-26.73-21.57-47-56.32-49.26l-.76,0c-2.79-.15-5.68-.3-8.76-.3-23.91,0-47.56,5.9-66.59,16.62-20.27,11.42-33,26.94-34.82,42.58-1.2,9.82,1.51,19.06,7.65,26a31.38,31.38,0,0,0,3,2.92l-1,2.68C124.42,422.2,109.29,429.87,99,436.3,75.25,451.07,62.72,467,61.72,483.62c-1.11,17.19,8.78,36.93,39.88,40.76a91.54,91.54,0,0,0,10.8.6c34,0,94.67-15.53,132.63-38.82A29.05,29.05,0,0,0,266.52,496h0a27.6,27.6,0,0,0,6.51-.78,22.6,22.6,0,0,0,17.19-19.83c0-.06,0-.12,0-.18a76.46,76.46,0,0,1,5.09-6.71c.26.17.53.32.79.48,2.22,11.94,12.24,20.94,21.39,23.81a23.43,23.43,0,0,0,2.3.58,29.44,29.44,0,0,0,6.19.59c.61,0,1.21,0,1.82-.07,5.43-.44,10.63-2.3,16.61-6a30.21,30.21,0,0,0,3.52,2.34,27.3,27.3,0,0,0,23.52,2,35.55,35.55,0,0,0,8.17-4.27,30,30,0,0,0,3.42,2.26,27.33,27.33,0,0,0,23.51,2,35.7,35.7,0,0,0,8.59-4.53,34.29,34.29,0,0,0,18.21,6.62h.2c.67,0,1.35.06,2.05.06,21.44,0,50.28-18.21,63.72-40,1.66-.35,3.28-.77,4.83-1.26l.2-.07c2.28-.74,22.48-7.73,28-23.05A22.76,22.76,0,0,0,530.1,410.21Zm-27,39.05-.8-2.15a44,44,0,0,1-5.49,1.36l-1.42.25-.73,1.25c-12.11,20.68-39.15,38.15-59,38.15-.58,0-1.14,0-1.67-.05h-.17a28,28,0,0,1-16.47-6.66l-1.89-1.6-2,1.45c-4.93,3.59-7.39,4.49-9,5.1a21.2,21.2,0,0,1-18.27-1.62,25.5,25.5,0,0,1-4.27-3.07L380,480l-2,1.44a33.84,33.84,0,0,1-8.68,4.87A21.2,21.2,0,0,1,351,484.73a25.69,25.69,0,0,1-4.29-3.08l-1.81-1.57-2,1.32c-7.54,5-12.3,5.94-15.61,6.21-.43,0-.87.05-1.31.05a23.57,23.57,0,0,1-4.95-.46c-.57-.12-1.13-.26-1.67-.43-7.45-2.33-16.05-10.2-17.28-20.21l-.2-1.65-1.49-.76a24.94,24.94,0,0,1-3.69-2.33l-2.27-1.73-1.94,2.1a81.7,81.7,0,0,0-8,10.26l-.46.71,0,.84q0,.39-.06.78a16.34,16.34,0,0,1-12.42,14.32,21.48,21.48,0,0,1-5,.6c-7,0-13.7-3.48-18.35-9.56l-1.75-2.28L244,479.41c-36.84,23.5-97.78,39.29-131.59,39.29a87.27,87.27,0,0,1-10.05-.55C68.69,514,67.54,491,68,484c.87-14.49,12.41-28.75,34.29-42.38,10.06-6.27,25.83-14.24,36.68-16.94l1.59-.4,3.84-10.08-1.92-1.41a25,25,0,0,1-3.87-3.54c-4.93-5.57-7.1-13.05-6.12-21.08,1.63-13.64,13.17-27.43,31.67-37.86,18.11-10.2,40.66-15.81,63.51-15.81,2.91,0,5.72.14,8.49.29l.59,0c31.11,2,51.87,19.56,50.49,42.63a35.22,35.22,0,0,1-5.31,16.67l-5.59,9,9.61-4.56a19.26,19.26,0,0,1,8.3-1.89,23.41,23.41,0,0,1,13.09,4.55l1.64,1.15,1.74-1c5-2.9,9.43-4.51,13.59-4.9a18.3,18.3,0,0,1,12,3.3l3.3,2.18,1.38-3.71c3.07-8.29,10-17.84,18.7-20.5a16.44,16.44,0,0,1,2.68-.59,23.24,23.24,0,0,1,15.93,3.94l2.49,1.64,1.76-2.4c2.76-3.76,5.43-7.32,8.16-10.89,5.73-7.45,10.46-12.57,14.87-16.1,3.65-2.92,8.67-6.3,15.07-6.48a30.12,30.12,0,0,1,18,5.32l1.84,1.25,1.79-1.32c4.67-3.46,8.94-5.12,13.48-5.25,12.89-.52,24.07,7.9,27.5,16.37a16.66,16.66,0,0,1-4.42,18.85,16.46,16.46,0,0,1-8,3.81l-1.07.19-.73.81c-1.21,1.35-2.75,3.2-4.69,5.65L459,399.33l8.44-1.72a56.91,56.91,0,0,1,11.24-1.18c7.56,0,13.85,1.94,18.77,5.8a17.29,17.29,0,0,1,3.77,3.82l1.39,1.94,2.25-.83a17.07,17.07,0,0,1,7.64-1,16.32,16.32,0,0,1,13.9,21.75c-3.64,10.18-17.29,17-24,19.2l.71,2.18.26.81Z" transform="translate(-61.64 -302.92)"/><path class="cls-1" d="M366.48,418.9,366,435.25c3.22-5.49,7.11-11.84,11.78-19.14,3.08-4.82,6.19-9.46,9.26-13.89l-5.26.19C372.5,404.26,368.19,408.93,366.48,418.9Z" transform="translate(-61.64 -302.92)"/><path class="cls-4" d="M376.83,400.67c-6.44-1.29-9.45-4.55-10.64-11.5l-.66-20.53-.67,20.53c-1.19,6.95-4.2,10.21-10.63,11.5l-19,.72,19,.71c6.43,1.29,9.44,4.55,10.63,11.5l.67,20.54.66-20.54c1.19-7,4.2-10.21,10.64-11.5l10.51-.39.43-.63Z" transform="translate(-61.64 -302.92)"/><path class="cls-1" d="M265.26,371.23a7,7,0,0,0-.39-3.89,16.46,16.46,0,0,0-2.52-.67l-15.49-.54,15.49-.54c.47-.09.89-.2,1.31-.31-4.12-5.24-14.78-8-21.77-9a8.49,8.49,0,0,0-.47,1.73l-.28,8.13-.29-8.13a8.17,8.17,0,0,0-.54-1.93c-.79-.09-1.53-.15-2.16-.19-26.54-1.67-63.37,15.1-76.14,29.22a30.78,30.78,0,0,0,7.9,2.6L202.54,389a139.43,139.43,0,0,1,19.15-17.46c2.62-1.75,4.81-2.47,6-2.33,8.31.73,13.41,9.62,10.93,7.72-1.6-.87-4.08,0-6.7,1.75-10.93,7.87-20.84,19.09-31.33,30.6C224.89,401.25,263.07,382.74,265.26,371.23Z" transform="translate(-61.64 -302.92)"/><path class="cls-4" d="M494.29,428.79c-5.83.43-9.33-2.92-12.09-7.43a4.53,4.53,0,0,0-3.36-1.46c-1.89.14-6.26,4.52-6.7,6s.87,5.83,1.6,7.14c-9.76,14.87-30.6,38.18-38.76,34.83s22.3-52.6,48.67-52.6c1,0,2.19.29,3.65.43.58,0,1,0,.29-.43-1-.88-3.35-2.48-8.89-2.48-16,0-36.22,11.44-47.13,26.38-10.79,10.07-26.78,24.61-31.7,24,3.5-9.32,14.43-27.83,27.1-47.06,7.29-10.64,13.26-19.23,19.53-27.25s15.88-21.56,21-19.23c2.77,1.6-3.06-6.85-11.22-6.41-1.31,0-3.2,1.16-5.39,2.91-3.64,2.92-7.72,7.58-12.1,13.26-7.57,9.91-16.9,22.59-25.93,36.72-4.4,6.89-8.12,12.94-11.24,18.21-9.94,9.28-31.05,29.53-36.84,28.85,3.49-9.32,14.42-27.83,27.1-47.06,3.6-5.26,6.88-10,10-14.46.12-.17.25-.34.37-.52,3.09-4.33,6.07-8.37,9.11-12.27,6.42-7.87,15.89-21.56,21-19.23,2.77,1.6-3.06-6.85-11.22-6.41-1.31,0-3.21,1.16-5.39,2.91-3.65,2.92-7.73,7.58-12.1,13.26-4.68,6.12-10,13.29-15.55,21.21l-6.38-.24c-9.23-1.85-13.54-6.52-15.25-16.49l-1-29.44-.95,29.44c-1.71,10-6,14.64-15.25,16.49l-27.22,1,27.22,1c9.22,1.85,13.54,6.52,15.25,16.49l.56,17.63c-10.21,9.7-27,24.93-34.62,26.94,1.75-6,21.71-39.2,27.68-38.62,1.17.15,1.9.88,1.9.29,0-3.64-5.83-9.47-9.18-9.47a3.06,3.06,0,0,0-2.19.88c-3.68,2.93-9.19,9.65-14.52,17.23-7.84,6.33-16,11.12-21.9,11.62,4.81-11.37,16.9-22,20.11-25.36,1-1.16-5-7.43-6.56-7.28-3.06.29-7.43,2.77-13.11,6.85-12.54,9-27.11,21.27-34.83,31.33,3.06-5.4,8.16-12.24,12.09-17.49,4.37-5.83,9.48-11.51,11.66-11.37,1.17.15,1.6.88,1.6.3,0-3.65-5.53-9.33-9-9.33a3.49,3.49,0,0,0-2,.73c-3.64,2.91-9.91,10.34-15,17.78-5.83,8.3-12.38,18.36-16,26.66-1.75,3.35-2.47,6.12-2.18,7.43,1,4.08,4.51,8.6,8.74,7.58-3.21-1.46,5.54-14.28,13-22.29,9.91-10.93,16.76-16.76,30.16-24.63-3.79,4.37-8.45,12.82-8.45,16.9,0,1.75,4.37,6.85,7,6.85,6.13,0,15-6.06,21.61-11.58-6.89,10.4-12.72,21.27-12.72,25.72,0,2.62,3.64,6.26,6,7a8,8,0,0,0,1.75.14c7.1-.57,22.91-15.34,35.51-28.29-5.82,10.59-8.26,16.77-8.26,19.41a3.56,3.56,0,0,0,.43,2.18,16,16,0,0,0,5.25,5.83,5.1,5.1,0,0,0,4.66.58c6.85-2.51,23.87-19.31,34.37-30.4-6.79,12.06-9.6,19-9.6,21.81a3.44,3.44,0,0,0,.44,2.18,16,16,0,0,0,5.24,5.83,5.1,5.1,0,0,0,4.66.58c5.61-2.05,18.06-13.71,28.15-24a31.57,31.57,0,0,0-3.09,13.17,11.73,11.73,0,0,0,11.08,11.51c15.44.88,45.61-20.11,49.54-39.49a12.55,12.55,0,0,0,4.37.59,28.74,28.74,0,0,0,8.6-1.31c7.14-2.34,13-7.14,13.7-9.18C509.44,422.23,504.05,427.91,494.29,428.79ZM377.73,416.11c-4.67,7.3-8.56,13.65-11.78,19.14l.53-16.35c1.71-10,6-14.64,15.25-16.49l5.26-.19C383.92,406.65,380.81,411.29,377.73,416.11Zm-12.87-2.51c-1.19-7-4.2-10.21-10.63-11.5l-19-.71,19-.72c6.43-1.29,9.44-4.55,10.63-11.5l.67-20.53.66,20.53c1.19,6.95,4.2,10.21,10.64,11.5l10.94.41,8,.31-8.47.32-10.51.39c-6.44,1.29-9.45,4.55-10.64,11.5l-.66,20.54Z" transform="translate(-61.64 -302.92)"/><path class="cls-5" d="M387.77,401.08l-10.94-.41c-6.44-1.29-9.45-4.55-10.64-11.5l-.66-20.53-.67,20.53c-1.19,6.95-4.2,10.21-10.63,11.5l-19,.72,19,.71c6.43,1.29,9.44,4.55,10.63,11.5l.67,20.54.66-20.54c1.19-7,4.2-10.21,10.64-11.5l10.51-.39,8.47-.32Z" transform="translate(-61.64 -302.92)"/><path class="cls-4" d="M229,409.7a31.67,31.67,0,0,0-4.95-.15c10.35-2.33,45.75-12.82,46.92-33.07,0-.73,0-1.44,0-2.13.09.39.2.76.27,1.19l.55,15.49.54-15.49c1-5.39,3.48-7.89,8.86-8.87l15.49-.54-15.49-.54c-5.38-1-7.89-3.48-8.86-8.87l-.54-15.49-.55,15.49c-.63,3.53-1.95,5.8-4.27,7.24-4.34-5.39-11.64-8.9-19.26-10.89l6.8-.24-8.13-.28c-3-.51-4.42-1.91-4.93-4.93l-.28-8.13-.29,8.13a5.52,5.52,0,0,1-2,3.8c-1.07-.12-2.14-.23-3.17-.3-2.77-.14-5.4-.29-8-.29-34.41,0-61.6,14-73.1,27.65a31.37,31.37,0,0,1-4.12-11.78l-1.21-37.58L148,366.7c-2.18,12.73-7.69,18.69-19.46,21.05L93.8,389.06l34.75,1.32c11.77,2.36,17.28,8.31,19.46,21.05L149.23,449l1.21-37.57c2.18-12.74,7.69-18.69,19.47-21.05l32.48-1.23c-21.7,23.14-43.86,56.19-44.09,65.43-.14,3.79,2,4.95,4.52,4.95,3.06,0,9.91-4.51,12.68-7.14-1.61.73-7.43,2.77-9.62,2.63-.58,0-1.17-.3-1.17-.73,0-5.1,21.13-28.42,29.44-37.89A117.11,117.11,0,0,1,221,412.9c1.89,0,3.64,0,5.54.15,10.63.73,27.83,3.93,27.1,13.7-2.19,25.35-96,65.28-144.4,65.28-1.9,0-3.79,0-5.54-.15-3.93-.29-14.72-1.16-14.42-6.56,1-15.59,39.05-37.44,54.49-44.58,1-.44,1.17-.44,1-.59C134,441.61,85.45,464.63,84.28,485c-.73,10.93,8.16,15.45,20,16.9a68.94,68.94,0,0,0,8.16.44c44.74,0,148.63-32.05,149.8-70.67C262.78,416.26,241.5,410.72,229,409.7Zm-28.41-.44c10.49-11.51,20.4-22.73,31.33-30.6,2.62-1.75,5.1-2.62,6.7-1.75,2.48,1.9-2.62-7-10.93-7.72-1.16-.14-3.35.58-6,2.33A139.43,139.43,0,0,0,202.54,389l-32.63-1.23a30.78,30.78,0,0,1-7.9-2.6c12.77-14.12,49.6-30.89,76.14-29.22.63,0,1.37.1,2.16.19a8.17,8.17,0,0,1,.54,1.93l.29,8.13.28-8.13a8.49,8.49,0,0,1,.47-1.73c7,1,17.65,3.72,21.77,9-.42.11-.84.22-1.31.31l-15.49.54,15.49.54a16.46,16.46,0,0,1,2.52.67,7,7,0,0,1,.39,3.89C263.07,382.74,224.89,401.25,200.56,409.26Z" transform="translate(-61.64 -302.92)"/><path class="cls-6" d="M332.12,536.51c3.32,0,5.15-1.82,6.47-9.3,1-5.56,2.42-11,3.51-16.55.91-4.69,1.41-7.7,1.78-10.26a33,33,0,0,0,4,.23c1.92,0,3.24-.14,4.33-.23-2.09,7.48-4.65,19.93-5,21.84-1.78,9.44-2.64,13.45-7.89,15.64a15.67,15.67,0,0,1-5.92,1.09c-.6,0-1.19,0-2-.05,0-1.13,0-1.77-.09-2.41Z" transform="translate(-61.64 -302.92)"/><path class="cls-7" d="M364.8,532c-2.37,0-4.69-.18-7.06-.18s-4,.09-6,.18c1.23-4.06,1.64-5.83,5.06-21.88,1.19-5.56,1.46-7.8,1.74-9.67,1.87.09,3.73.19,5.6.19,2.65,0,5.34-.19,8-.19,8.07,0,13.31,5.88,13.31,13.82C385.45,520.64,381.49,532,364.8,532Zm9.53-26.81c-1.55-1.23-3.78-1.68-6.52-1.68a16.81,16.81,0,0,0-2,.09c-1.5,5.74-3.56,15.27-5.24,25.25.86.05,1.32.1,3,.1,2.46,0,5.65,0,8.66-2.6s5.25-8,5.25-13.31C377.48,510,376.47,506.83,374.33,505.14Z" transform="translate(-61.64 -302.92)"/><path class="cls-8" d="M386.64,535.37h22.79v2.28H386.64Z" transform="translate(-61.64 -302.92)"/><path class="cls-9" d="M434,516.5c-2.64,1.82-7,2.14-8.71,2.14a34.12,34.12,0,0,1-4-.27c-.91,3.78-2.1,9.89-2.55,13.58a41.4,41.4,0,0,0-4.2-.23,38.64,38.64,0,0,0-4.05.23c2.37-8.84,2.55-9.66,5.65-25.07a50.38,50.38,0,0,0,1-6.48c1.55.14,2.92.19,4.2.19,2.59,0,5.56-.19,9-.19,4.93,0,7.94,2.51,7.94,7.52A10.52,10.52,0,0,1,434,516.5Zm-9.39-13c-1.32,5.06-1.64,6.65-2.69,12.08.46,0,.82,0,1.69,0a7,7,0,0,0,4.37-1.18c1.55-1.23,2.56-4.38,2.56-6.79C430.5,503.46,427.17,503.46,424.57,503.46Z" transform="translate(-61.64 -302.92)"/><path class="cls-10" d="M448.27,498.44a28.55,28.55,0,0,0,3.88-.27c-1.51,5.7-5.61,24.07-7.34,33.78a30.55,30.55,0,0,0-3.69-.27,33,33,0,0,0-3.74.27c1-3.28,1.87-6.56,2.6-9.89,3-13.95,3.37-15.5,4.65-23.89A23,23,0,0,0,448.27,498.44Z" transform="translate(-61.64 -302.92)"/><path class="cls-11" d="M461.68,528.44c2.46,0,4.05-2.28,4.83-4.38a76.69,76.69,0,0,0,3.28-14.58,32.26,32.26,0,0,0,4,.27,22.7,22.7,0,0,0,3.47-.27A200.2,200.2,0,0,0,472.48,532a21.54,21.54,0,0,0-3.37-.27,37.61,37.61,0,0,0-3.92.27c.36-1.18.68-2.37,1-3.56a9.89,9.89,0,0,1-8.12,4.06c-3.69,0-6-2-6-5.2,0-2.27,1-5.74,1.46-7.84.73-3.46,1.37-6.52,1.83-9.93a36.58,36.58,0,0,0,4.46.27,26,26,0,0,0,3.51-.27c-2.82,10-4.1,14.58-4.1,16.36A2.47,2.47,0,0,0,461.68,528.44Z" transform="translate(-61.64 -302.92)"/><path class="cls-12" d="M480.37,525.2c.5,3,2.46,5,5.47,5,1.73,0,3.92-.73,3.92-2.78,0-1.55-.82-2.1-4.47-4.28-2.87-1.74-4.28-3.83-4.28-6.39,0-3.28,2.69-7.61,8.66-7.61a11,11,0,0,1,7.7,2.92,13.43,13.43,0,0,0-1.87,4.37l-.86-.31c-.5-2.83-2-4.7-4.93-4.7-1.68,0-3.41.73-3.41,2.69,0,1.46.63,1.87,4.23,4,3.2,1.87,5.07,3.55,5.07,6.88,0,4.1-2.88,7.61-9,7.61a13.64,13.64,0,0,1-8.71-3,18.45,18.45,0,0,0,1.73-4.46Z" transform="translate(-61.64 -302.92)"/><path class="cls-13" d="M163.65,388.15c-8.21-1.65-12.05-5.81-13.58-14.68l-.84-26.22-.85,26.22c-1.52,8.87-5.37,13-13.58,14.68l-24.24.91,24.24.92c8.21,1.65,12.06,5.8,13.58,14.68l.85,26.21.84-26.21c1.53-8.88,5.37-13,13.58-14.68l24.24-.92Z" transform="translate(-61.64 -302.92)"/><path class="cls-4" d="M215.17,312a3.63,3.63,0,0,1-3.43-3.43l-.2-5.66-.2,5.66a3.63,3.63,0,0,1-3.43,3.43l-5.66.2,5.66.2a3.62,3.62,0,0,1,3.43,3.43l.2,5.66.2-5.66a3.62,3.62,0,0,1,3.43-3.43l5.66-.2Z" transform="translate(-61.64 -302.92)"/><path class="cls-4" d="M235.42,315a3.62,3.62,0,0,1-3.43-3.43l-.2-5.66-.2,5.66a3.63,3.63,0,0,1-3.43,3.43l-5.66.2,5.66.2a3.64,3.64,0,0,1,3.43,3.43l.2,5.66.2-5.66a3.63,3.63,0,0,1,3.43-3.43l5.66-.2Z" transform="translate(-61.64 -302.92)"/><path class="cls-14" d="M177.82,351.15a2.53,2.53,0,0,1,2.4,2.39l.13,3.95.14-3.95a2.53,2.53,0,0,1,2.4-2.39l3.94-.14-3.94-.14a2.55,2.55,0,0,1-2.4-2.39l-.14-4-.13,4a2.55,2.55,0,0,1-2.4,2.39l-3.94.14Z" transform="translate(-61.64 -302.92)"/><path class="cls-15" d="M278.32,366.51l10.8-.38-10.8-.38c-3.76-.68-5.51-2.43-6.19-6.18l-.37-10.81-.38,10.81c-.68,3.75-2.43,5.5-6.18,6.18l-10.81.38,10.81.38c3.75.68,5.5,2.43,6.18,6.18l.38,10.81.37-10.81C272.81,368.94,274.56,367.19,278.32,366.51Z" transform="translate(-61.64 -302.92)"/><path class="cls-16" d="M214.07,312.07a2.53,2.53,0,0,1-2.39-2.39l-.14-3.95-.14,3.95a2.53,2.53,0,0,1-2.39,2.39l-3.95.14,3.95.14a2.53,2.53,0,0,1,2.39,2.39l.14,3.95.14-3.95a2.53,2.53,0,0,1,2.39-2.39l4-.14Z" transform="translate(-61.64 -302.92)"/><path class="cls-17" d="M234.32,315.08a2.53,2.53,0,0,1-2.39-2.39l-.14-3.95-.14,3.95a2.53,2.53,0,0,1-2.39,2.39l-3.95.14,3.95.14a2.53,2.53,0,0,1,2.39,2.39l.14,3.95.14-3.95a2.53,2.53,0,0,1,2.39-2.39l4-.14Z" transform="translate(-61.64 -302.92)"/><path class="cls-18" d="M244.77,353l5.67-.2-5.67-.2a3.62,3.62,0,0,1-3.43-3.43l-.2-5.67-.2,5.67a3.63,3.63,0,0,1-3.44,3.43l-5.67.2,5.67.2a3.65,3.65,0,0,1,3.44,3.44l.2,5.67.2-5.67A3.63,3.63,0,0,1,244.77,353Z" transform="translate(-61.64 -302.92)"/></svg>